<mxfile host="app.diagrams.net" agent="Mozilla/5.0 (Windows NT 10.0; Win64; x64) AppleWebKit/537.36 (KHTML, like Gecko) Chrome/126.0.0.0 Safari/537.36" version="24.7.4">
  <diagram name="หน้า-1" id="p9Cu0_QV-RrJPMPNrQR-">
    <mxGraphModel>
      <root>
        <mxCell id="0" />
        <mxCell id="1" parent="0" />
        <mxCell id="2" value="Start" style="ellipse;aspect=fixed;strokeWidth=2;whiteSpace=wrap;" vertex="1" parent="1">
          <mxGeometry x="130" width="50" height="50" as="geometry" />
        </mxCell>
        <mxCell id="3" value="num &gt; 1" style="rhombus;strokeWidth=2;whiteSpace=wrap;" vertex="1" parent="1">
          <mxGeometry x="25" y="100" width="106" height="106" as="geometry" />
        </mxCell>
        <mxCell id="4" value="num == 1" style="rhombus;strokeWidth=2;whiteSpace=wrap;" vertex="1" parent="1">
          <mxGeometry y="285" width="114" height="114" as="geometry" />
        </mxCell>
        <mxCell id="5" value="num &amp;lt;= 0" style="rhombus;strokeWidth=2;whiteSpace=wrap;" vertex="1" parent="1">
          <mxGeometry x="164" y="274" width="134" height="134" as="geometry" />
        </mxCell>
        <mxCell id="6" value="End" style="ellipse;aspect=fixed;strokeWidth=2;whiteSpace=wrap;" vertex="1" parent="1">
          <mxGeometry x="365" y="961" width="41" height="41" as="geometry" />
        </mxCell>
        <mxCell id="7" value="End" style="ellipse;aspect=fixed;strokeWidth=2;whiteSpace=wrap;" vertex="1" parent="1">
          <mxGeometry x="210" y="669" width="41" height="41" as="geometry" />
        </mxCell>
        <mxCell id="8" value="Error" style="rounded=1;absoluteArcSize=1;arcSize=14;whiteSpace=wrap;strokeWidth=2;" vertex="1" parent="1">
          <mxGeometry x="273" y="495" width="52" height="33" as="geometry" />
        </mxCell>
        <mxCell id="9" value="num &gt; 0" style="rhombus;strokeWidth=2;whiteSpace=wrap;" vertex="1" parent="1">
          <mxGeometry x="352" y="100" width="106" height="106" as="geometry" />
        </mxCell>
        <mxCell id="10" value="num == 1" style="rhombus;strokeWidth=2;whiteSpace=wrap;" vertex="1" parent="1">
          <mxGeometry x="470" y="285" width="114" height="114" as="geometry" />
        </mxCell>
        <mxCell id="11" value="num &gt; 1" style="rhombus;strokeWidth=2;whiteSpace=wrap;" vertex="1" parent="1">
          <mxGeometry x="520" y="459" width="106" height="106" as="geometry" />
        </mxCell>
        <mxCell id="12" value="num == 2" style="rhombus;strokeWidth=2;whiteSpace=wrap;" vertex="1" parent="1">
          <mxGeometry x="395" y="797" width="114" height="114" as="geometry" />
        </mxCell>
        <mxCell id="13" value="num == 3" style="rhombus;strokeWidth=2;whiteSpace=wrap;" vertex="1" parent="1">
          <mxGeometry x="600" y="633" width="114" height="114" as="geometry" />
        </mxCell>
        <mxCell id="14" value="num &gt; 3" style="rhombus;strokeWidth=2;whiteSpace=wrap;" vertex="1" parent="1">
          <mxGeometry x="559" y="801" width="106" height="106" as="geometry" />
        </mxCell>
        <mxCell id="15" value="End" style="ellipse;aspect=fixed;strokeWidth=2;whiteSpace=wrap;" vertex="1" parent="1">
          <mxGeometry x="715" y="833" width="41" height="41" as="geometry" />
        </mxCell>
        <mxCell id="16" value="" style="curved=1;startArrow=none;endArrow=block;exitX=0.01;exitY=0.82;entryX=0.5;entryY=0;" edge="1" parent="1" source="2" target="3">
          <mxGeometry relative="1" as="geometry">
            <Array as="points">
              <mxPoint x="78" y="75" />
            </Array>
          </mxGeometry>
        </mxCell>
        <mxCell id="17" value="Yes" style="curved=1;startArrow=none;endArrow=block;exitX=0.38;exitY=1;entryX=0.5;entryY=0;" edge="1" parent="1" source="3" target="4">
          <mxGeometry relative="1" as="geometry">
            <Array as="points">
              <mxPoint x="57" y="240" />
            </Array>
          </mxGeometry>
        </mxCell>
        <mxCell id="18" value="No" style="curved=1;startArrow=none;endArrow=block;exitX=0.99;exitY=0.8;entryX=0.46;entryY=0;" edge="1" parent="1" source="3" target="5">
          <mxGeometry relative="1" as="geometry">
            <Array as="points">
              <mxPoint x="222" y="240" />
            </Array>
          </mxGeometry>
        </mxCell>
        <mxCell id="19" value="" style="curved=1;startArrow=none;endArrow=block;exitX=0.5;exitY=1;entryX=0;entryY=0.42;" edge="1" parent="1" source="4" target="6">
          <mxGeometry relative="1" as="geometry">
            <Array as="points">
              <mxPoint x="57" y="936" />
            </Array>
          </mxGeometry>
        </mxCell>
        <mxCell id="20" value="" style="curved=1;startArrow=none;endArrow=block;exitX=0.08;exitY=1.01;entryX=0.09;entryY=0;" edge="1" parent="1" source="5" target="7">
          <mxGeometry relative="1" as="geometry">
            <Array as="points">
              <mxPoint x="154" y="434" />
              <mxPoint x="154" y="598" />
            </Array>
          </mxGeometry>
        </mxCell>
        <mxCell id="21" value="" style="curved=1;startArrow=none;endArrow=block;exitX=0.87;exitY=1.01;entryX=0.5;entryY=-0.01;" edge="1" parent="1" source="5" target="8">
          <mxGeometry relative="1" as="geometry">
            <Array as="points">
              <mxPoint x="299" y="434" />
            </Array>
          </mxGeometry>
        </mxCell>
        <mxCell id="22" value="" style="curved=1;startArrow=none;endArrow=block;exitX=0.5;exitY=1.01;entryX=0.89;entryY=0;" edge="1" parent="1" source="8" target="7">
          <mxGeometry relative="1" as="geometry">
            <Array as="points">
              <mxPoint x="299" y="598" />
            </Array>
          </mxGeometry>
        </mxCell>
        <mxCell id="23" value="" style="curved=1;startArrow=none;endArrow=block;exitX=1.01;exitY=0.6;entryX=0.5;entryY=0;" edge="1" parent="1" source="2" target="9">
          <mxGeometry relative="1" as="geometry">
            <Array as="points">
              <mxPoint x="405" y="75" />
            </Array>
          </mxGeometry>
        </mxCell>
        <mxCell id="24" value="Yes" style="curved=1;startArrow=none;endArrow=block;exitX=0.5;exitY=1;entryX=0;entryY=0.08;" edge="1" parent="1" source="9" target="10">
          <mxGeometry relative="1" as="geometry">
            <Array as="points">
              <mxPoint x="405" y="240" />
            </Array>
          </mxGeometry>
        </mxCell>
        <mxCell id="25" value="No" style="curved=1;startArrow=none;endArrow=block;exitX=0.74;exitY=1;entryX=1;entryY=0.27;" edge="1" parent="1" source="9" target="5">
          <mxGeometry relative="1" as="geometry">
            <Array as="points">
              <mxPoint x="446" y="240" />
            </Array>
          </mxGeometry>
        </mxCell>
        <mxCell id="26" value="" style="curved=1;startArrow=none;endArrow=block;exitX=0;exitY=0.77;entryX=0.22;entryY=-0.01;" edge="1" parent="1" source="10" target="6">
          <mxGeometry relative="1" as="geometry">
            <Array as="points">
              <mxPoint x="360" y="434" />
              <mxPoint x="360" y="936" />
            </Array>
          </mxGeometry>
        </mxCell>
        <mxCell id="27" value="" style="curved=1;startArrow=none;endArrow=block;exitX=0.75;exitY=1;entryX=0.5;entryY=0;" edge="1" parent="1" source="10" target="11">
          <mxGeometry relative="1" as="geometry">
            <Array as="points">
              <mxPoint x="573" y="434" />
            </Array>
          </mxGeometry>
        </mxCell>
        <mxCell id="28" value="Yes" style="curved=1;startArrow=none;endArrow=block;exitX=0;exitY=0.85;entryX=0.5;entryY=0;" edge="1" parent="1" source="11" target="12">
          <mxGeometry relative="1" as="geometry">
            <Array as="points">
              <mxPoint x="452" y="598" />
            </Array>
          </mxGeometry>
        </mxCell>
        <mxCell id="29" value="No" style="curved=1;startArrow=none;endArrow=block;exitX=0.98;exitY=0.99;entryX=0.5;entryY=0;" edge="1" parent="1" source="11" target="13">
          <mxGeometry relative="1" as="geometry">
            <Array as="points">
              <mxPoint x="657" y="598" />
            </Array>
          </mxGeometry>
        </mxCell>
        <mxCell id="30" value="" style="curved=1;startArrow=none;endArrow=block;exitX=0.5;exitY=1;entryX=1;entryY=0.15;" edge="1" parent="1" source="12" target="6">
          <mxGeometry relative="1" as="geometry">
            <Array as="points">
              <mxPoint x="452" y="936" />
            </Array>
          </mxGeometry>
        </mxCell>
        <mxCell id="31" value="" style="curved=1;startArrow=none;endArrow=block;exitX=0.22;exitY=1;entryX=0.5;entryY=0;" edge="1" parent="1" source="13" target="14">
          <mxGeometry relative="1" as="geometry">
            <Array as="points">
              <mxPoint x="612" y="772" />
            </Array>
          </mxGeometry>
        </mxCell>
        <mxCell id="32" value="" style="curved=1;startArrow=none;endArrow=block;exitX=0.98;exitY=1;entryX=0.49;entryY=0;" edge="1" parent="1" source="13" target="15">
          <mxGeometry relative="1" as="geometry">
            <Array as="points">
              <mxPoint x="735" y="772" />
            </Array>
          </mxGeometry>
        </mxCell>
        <mxCell id="33" value="" style="curved=1;startArrow=none;endArrow=block;exitX=0.5;exitY=0.99;entryX=1;entryY=0.39;" edge="1" parent="1" source="14" target="6">
          <mxGeometry relative="1" as="geometry">
            <Array as="points">
              <mxPoint x="612" y="936" />
            </Array>
          </mxGeometry>
        </mxCell>
      </root>
    </mxGraphModel>
  </diagram>
</mxfile>
